<svg xmlns="http://www.w3.org/2000/svg" viewBox="0 0 64 64">
  <rect width="64" height="64" rx="12" fill="#ffffff" />
  <circle cx="32" cy="32" r="26" fill="none" stroke="#0f3fa8" stroke-width="2.5" />
  <circle cx="32" cy="32" r="23.5" fill="none" stroke="#0f3fa8" stroke-width="1.5" />

  <g fill="#0f3fa8">
    <path d="M21 18c4 0 7 3.1 7 7.1 0 2.5-1 4.8-2.8 6.8 0 0 1.6-5.8-4.2-8.5-1.9-.9-3.4-.9-3.4-.9S18.9 18 21 18Z" />
    <path d="M43 18c-4 0-7 3.1-7 7.1 0 2.5 1 4.8 2.8 6.8 0 0-1.6-5.8 4.2-8.5 1.9-.9 3.4-.9 3.4-.9S45.1 18 43 18Z" />
    <path d="M21 46c4 0 7-3.1 7-7.1 0-2.5-1-4.8-2.8-6.8 0 0 1.6 5.8-4.2 8.5-1.9.9-3.4.9-3.4.9S18.9 46 21 46Z" />
    <path d="M43 46c-4 0-7-3.1-7-7.1 0-2.5 1-4.8 2.8-6.8 0 0-1.6 5.8 4.2 8.5 1.9.9 3.4.9 3.4.9S45.1 46 43 46Z" />
  </g>

  <g fill="#6d8fd2">
    <path d="M32 14c2.3 1.4 4.1 3.6 5.1 6.1-1.7-1.2-3.4-1.8-5.1-1.8-1.7 0-3.4.6-5.1 1.8 1-2.5 2.8-4.7 5.1-6.1Z" />
    <path d="M50 32c-1.4 2.3-3.6 4.1-6.1 5.1 1.2-1.7 1.8-3.4 1.8-5.1 0-1.7-.6-3.4-1.8-5.1 2.5 1 4.7 2.8 6.1 5.1Z" />
    <path d="M32 50c-2.3-1.4-4.1-3.6-5.1-6.1 1.7 1.2 3.4 1.8 5.1 1.8 1.7 0 3.4-.6 5.1-1.8-1 2.5-2.8 4.7-5.1 6.1Z" />
    <path d="M14 32c1.4-2.3 3.6-4.1 6.1-5.1-1.2 1.7-1.8 3.4-1.8 5.1 0 1.7.6 3.4 1.8 5.1-2.5-1-4.7-2.8-6.1-5.1Z" />
    <circle cx="32" cy="14.6" r="1.6" />
    <circle cx="49.4" cy="32" r="1.6" />
    <circle cx="32" cy="49.4" r="1.6" />
    <circle cx="14.6" cy="32" r="1.6" />
  </g>
</svg>
