<svg xmlns="http://www.w3.org/2000/svg" viewBox="0 0 512 512">
  <rect width="512" height="512" rx="28" fill="#ffffff" />
  <circle cx="256" cy="256" r="174" fill="none" stroke="#0f3fa8" stroke-width="8" />
  <circle cx="256" cy="256" r="162" fill="none" stroke="#0f3fa8" stroke-width="4" />

  <g fill="#0f3fa8">
    <path d="M181 154c26 0 46 20 46 46 0 17-7 32-18 45 0 0 10-37-28-55-13-6-23-6-23-6s8-30 23-30Z" />
    <path d="M331 154c-26 0-46 20-46 46 0 17 7 32 18 45 0 0-10-37 28-55 13-6 23-6 23-6s-8-30-23-30Z" />
    <path d="M181 358c26 0 46-20 46-46 0-17-7-32-18-45 0 0 10 37-28 55-13 6-23 6-23 6s8 30 23 30Z" />
    <path d="M331 358c-26 0-46-20-46-46 0-17 7-32 18-45 0 0-10 37 28 55 13 6 23 6 23 6s-8 30-23 30Z" />

    <path d="M216 170c25-19 49-12 67 22-4-28-13-48-27-60-14-12-27-18-27-18-17 5-33 17-47 37 11-5 23-8 34-8Z" />
    <path d="M296 170c-25-19-49-12-67 22 4-28 13-48 27-60 14-12 27-18 27-18 17 5 33 17 47 37-11-5-23-8-34-8Z" transform="scale(-1 1) translate(-512 0)" />
    <path d="M216 342c25 19 49 12 67-22-4 28-13 48-27 60-14 12-27 18-27 18-17-5-33-17-47-37 11 5 23 8 34 8Z" />
    <path d="M296 342c-25 19-49 12-67-22 4 28 13 48 27 60 14 12 27 18 27 18 17-5 33-17 47-37-11 5-23 8-34 8Z" transform="scale(-1 1) translate(-512 0)" />
  </g>

  <g fill="#6d8fd2">
    <path d="M256 120c16 10 28 25 35 42-12-8-24-12-35-12s-23 4-35 12c7-17 19-32 35-42Z" />
    <path d="M392 256c-10 16-25 28-42 35 8-12 12-24 12-35s-4-23-12-35c17 7 32 19 42 35Z" />
    <path d="M256 392c-16-10-28-25-35-42 12 8 24 12 35 12s23-4 35-12c-7 17-19 32-35 42Z" />
    <path d="M120 256c10-16 25-28 42-35-8 12-12 24-12 35s4 23 12 35c-17-7-32-19-42-35Z" />

    <path d="M190 150c16-8 31-8 46-1-10 3-18 9-25 18-8 0-15 3-21 8-6 5-12 8-18 9 4-14 10-25 18-34Z" />
    <path d="M322 150c-16-8-31-8-46-1 10 3 18 9 25 18 8 0 15 3 21 8 6 5 12 8 18 9-4-14-10-25-18-34Z" />
    <path d="M190 362c16 8 31 8 46 1-10-3-18-9-25-18-8 0-15-3-21-8-6-5-12-8-18-9 4 14 10 25 18 34Z" />
    <path d="M322 362c-16 8-31 8-46 1 10-3 18-9 25-18 8 0 15-3 21-8 6-5 12-8 18-9-4 14-10 25-18 34Z" />

    <path d="M211 235c8 2 15 7 21 15-8 1-16-1-22-5-6-5-10-10-11-17 5 0 9 2 12 7Z" />
    <path d="M301 235c-8 2-15 7-21 15 8 1 16-1 22-5 6-5 10-10 11-17-5 0-9 2-12 7Z" />
    <path d="M211 277c8-2 15-7 21-15-8-1-16 1-22 5-6 5-10 10-11 17 5 0 9-2 12-7Z" />
    <path d="M301 277c-8-2-15-7-21-15 8-1 16 1 22 5 6 5 10 10 11 17-5 0-9-2-12-7Z" />

    <circle cx="256" cy="120" r="8" />
    <circle cx="392" cy="256" r="8" />
    <circle cx="256" cy="392" r="8" />
    <circle cx="120" cy="256" r="8" />
  </g>
</svg>
